<mxfile host="65bd71144e">
    <diagram id="HIP3nbAZw_EuaXWnEj3U" name="Page-1">
        <mxGraphModel dx="1616" dy="579" grid="1" gridSize="10" guides="1" tooltips="1" connect="1" arrows="1" fold="1" page="1" pageScale="1" pageWidth="850" pageHeight="1100" math="0" shadow="0">
            <root>
                <mxCell id="0"/>
                <mxCell id="1" parent="0"/>
                <mxCell id="7" value="http://ics2o.mths.ca" style="swimlane;whiteSpace=wrap;html=1;" parent="1" vertex="1">
                    <mxGeometry x="-160" width="520" height="390" as="geometry"/>
                </mxCell>
                <mxCell id="8" value="&lt;font style=&quot;font-size: 20px;&quot;&gt;Volume of a sphere&lt;/font&gt;" style="text;html=1;align=center;verticalAlign=middle;resizable=0;points=[];autosize=1;strokeColor=none;fillColor=none;" vertex="1" parent="7">
                    <mxGeometry y="63" width="200" height="40" as="geometry"/>
                </mxCell>
                <mxCell id="9" value="&lt;font style=&quot;font-size: 20px;&quot;&gt;Sphere&lt;/font&gt;" style="text;html=1;align=center;verticalAlign=middle;resizable=0;points=[];autosize=1;strokeColor=none;fillColor=none;" vertex="1" parent="7">
                    <mxGeometry y="103" width="90" height="40" as="geometry"/>
                </mxCell>
                <mxCell id="10" value="Please enter integers for radius" style="text;html=1;align=center;verticalAlign=middle;resizable=0;points=[];autosize=1;strokeColor=none;fillColor=none;" vertex="1" parent="7">
                    <mxGeometry y="143" width="190" height="30" as="geometry"/>
                </mxCell>
                <mxCell id="13" value="&lt;font style=&quot;font-size: 25px;&quot;&gt;V = ⁴/₃&lt;span style=&quot;color: rgb(0, 29, 53); font-family: &amp;quot;Google Sans&amp;quot;, Arial, sans-serif; text-wrap-mode: wrap; background-color: rgb(255, 255, 255);&quot;&gt;π&lt;/span&gt;r&lt;span style=&quot;color: rgb(31, 31, 31); font-family: &amp;quot;Google Sans&amp;quot;, Arial, sans-serif; text-wrap-mode: wrap; background-color: rgb(255, 255, 255);&quot;&gt;³&lt;/span&gt;&lt;/font&gt;" style="text;html=1;align=center;verticalAlign=middle;resizable=0;points=[];autosize=1;strokeColor=none;fillColor=none;" vertex="1" parent="7">
                    <mxGeometry x="10" y="175" width="130" height="40" as="geometry"/>
                </mxCell>
                <mxCell id="15" value="&lt;font style=&quot;font-size: 20px;&quot;&gt;r&lt;/font&gt;" style="text;html=1;align=center;verticalAlign=middle;resizable=0;points=[];autosize=1;strokeColor=none;fillColor=none;" vertex="1" parent="7">
                    <mxGeometry x="10" y="233" width="30" height="40" as="geometry"/>
                </mxCell>
                <mxCell id="16" value="Radius" style="text;html=1;align=center;verticalAlign=middle;resizable=0;points=[];autosize=1;strokeColor=none;fillColor=none;" vertex="1" parent="7">
                    <mxGeometry x="30" y="238" width="60" height="30" as="geometry"/>
                </mxCell>
                <mxCell id="17" value="mm" style="text;html=1;align=center;verticalAlign=middle;resizable=0;points=[];autosize=1;strokeColor=none;fillColor=none;" vertex="1" parent="7">
                    <mxGeometry x="215" y="238" width="40" height="30" as="geometry"/>
                </mxCell>
                <mxCell id="18" value="" style="rounded=1;whiteSpace=wrap;html=1;" vertex="1" parent="7">
                    <mxGeometry x="90" y="238" width="115" height="30" as="geometry"/>
                </mxCell>
                <mxCell id="21" value="" style="shape=image;verticalLabelPosition=bottom;labelBackgroundColor=default;verticalAlign=top;aspect=fixed;imageAspect=0;image=data:image/png,iVBORw0KGgoAAAANSUhEUgAAAKoAAAC9CAYAAAAjpeahAAAAAXNSR0IArs4c6QAAGOZJREFUeF7tneePVVUXxheDMFJ8h6IiRQHFAop0xAahiIgYCYai2AiGxKjhi4l/g4lfjBoTogELUTAQjKgIKIIFlG4BFRQGZkYRAUeaw1De/DZuuI5TTj/7nLtWsjP3wj3n7LP2s9sqz2525syZM6KiGnBcA80UqI63kFbPaECBqkDIhAYUqJloJq2kAlUxkAkNKFAz0UxaSQWqYiATGlCgZqKZtJIKVMVAJjSgQM1EM2klFaiKgUxoQIGaiWbSSipQFQOZ0IACNRPNpJVUoCoGMqEBBWommkkrqUBVDGRCAwrUTDSTVlKBqhjIhAYUqJloJq2kAlUxkAkNKFAz0UxaSQWqYiATGlCgZqKZtJIKVMVAJjSgQM1EM2klFagBMAC5zIEDB+TgwYNSXV0tf/31lxw+fFiOHj0qf//9tym1tbWmnD59Wvh9s2bNpKSkRFq0aGHKhRdeaEqbNm3koosukv/9739SVlYmHTp0kI4dO5rfq5zXgAK1CTQAssrKSvn111/lt99+k99//132799vwASoABcgA2yArlWrVlJaWiotW7Y0gAScgI77AFrAe+LECampqZHjx48bcANywA7oAT+d4JJLLpFLL71ULrvsMuncubN07dq1qMGrQK0HqABz9+7dsnfvXtmzZ4906tRJunTpYkADeAARAIxLADSdgU5B56iqqpJ9+/bJFVdcIZdffrn06NHDALeYRIH6T2v//PPPsmPHDtm5c6e0bt3agKF79+4GGIyOaQujMB2nvLzcdKJjx45Jr1695Oqrr5arrroq7erF/vyiBmpFRYVs27ZNfvjhBzOV0+iU9u3bx674sA84dOiQ6VgUlgrXXXed9OnTR7p16xb21k5eX3RAPXnypGzdulW+/fZb4TON27t370yAsyEEAdrt27ebTnfBBRdI3759pV+/fuZzXqRogPrnn3/K5s2bZdOmTWbKpCGZ3vMmLAvoiCxhBg4cKAMGDJB27dpl/jVzD1SmxfXr18t3331nGo6Sh4ZrCnl0TDol5YYbbpAhQ4aY5U1WJbdAxdyzdu1aA9CbbrpJBg8ebOyWxSbYdDds2CBfffWVWebceuutxpyWNckdULFXfv755/Lll18agA4bNqwoAVoXiNholy1bZiwGt9xyi9x2222ZssvmCqhsJlavXm3sjYwcxTDFex0Zd+3aZTosDokvvvjC2IeHDx8u119/vddbpPq7XACVXe+qVauMh2fEiBG53CSFQQner19++cWsVa1rlpGVTo1HbeTIkc5bPTIPVDYLH3/8sRlBmdJU/qsBnBkAEq9aXWGJxAg7evRos9F0VTILVEaJ5cuXGw8NSsa9qfJfDbA2xSXMRqohwU1LZ8cjN3bsWBOz4JpkEqjYCNkYYAu9/fbbXdOpU/X58ccfTWwCATRNyWeffWZssOPGjTO2Zpckc0BlmsJw76IyXWpY6kIk1h9//CHXXHON56rZQQBHAcspVyQzQMXstHTpUjPVjx8/3qy5VBrXAFYQoqwIRfQjbEo/+OADsxSYMGGCE2asTAAV4/27775rwu1YQ6k0rQFCBAFcmMgq9gCEF957772pOwmcByoBy0uWLDE+a4z3Kk1rgNmHoBtAGnZjtG7dOrPUmjhxogngTkucBipG6sWLF5tRlIggFW8aoHMTv0o8bRQC6BldJ02aJD179ozilr7v4SxQibNctGiRUY6fzYBvDeTsAlJdiG8gdDHK2IaffvrJDBr33XefidlNWpwEKkphup88eXJqPTjphojqeWQB4H2KI4CaGe6dd94xy4CkBw/ngIoXhZF0ypQp6gr1iV4ipQigZpkUV9A0rteFCxeakTXMRs3nq7l1DDqBEm+//baZ7l0zOPtVbBq/B0RM93F76bC1sgyYNm2aCQBKQpwZUcm6fOutt+SOO+4w6ysVfxo4cuSICTxhNE2CE4CRe8WKFXL//fcbz1fc4gRQmbLmz58v/fv3l0GDBsX9zrm8P6Mchv0kQGMVuHHjRtmyZYtMnz490o1bfQ3kBFBZoBPZQ4iein8NeAk88X9Xb1cQKohzgY1vnJI6UFeuXGnYQvB+qATTAIEndPS00rzxGuJYGDNmTLAX8HBVqkBl2sDr8fDDD0vz5s09VFd/UlcDJC8SeHLttdemppxTp07J66+/bryHLN/ikNSAig957ty58uijj8a+S41Dca7c8/vvvzdsLmkn7BHTOm/ePJkxY4aJyYhaUgPqa6+9JjfeeKPphSrBNBBF4EmwJ9d/FTMk8ayPPPJIlLc190oFqOQ3sS4lhEwlmAYgUsNVir2ZcDxXhFBM1qvkYUUpiQMVNxyxjjNnzozdpBGlopy61xmRw0cOCyQTTPsuCabGV1991cQMRxnAkjhQeQkixyH1UsmnBiCdIxODwSgqSRSoa9asMYS1OuVH1Xzu3oclABs8uAOikMSAysL/jTfekFmzZmkaSRQt5/g9yC6YM2eOPPTQQ/WmafutfmJAJSKK9dTQoUP91lF/n1ENfP3114Z8mEirsJIIUIkvZc2CjU3FrwYqZPvGfXKMyy4ok57dRPbsrpZTItK8rKf079V0GrTfJ0b5e2zl7EnCxq8mAlRsphCW6QYqOAQO7twiu6pPnQVrx1rZte+YtO40SHo7TjDNxgomwbC21diBSr4N9j7CwVSCa6Bi+0bZJ51kkOvIrOcVCd+E9ypM3lvsQMUcNWrUqEhtasGbO6tXHpSdW3fJkTbuT/X1aRjb+SeffBLKXBUrUBlJ8UVPnTo1qwhxo94HdsqW3UekbY/+0iujpNELFiwwFJeMrEEkVqCyNmUhrWklQZqm4JqK7bJxn0inQb3F8SVpgy9KVjHMgUHXqrEBlSQ9mJ+DVixk0+bqcrM+PVEmPfv1Erf3+I2rnYELpusgSYGxARW7qT19JFeo0ZcJrAF7WksQu2osQIVFDi/U7NmzA7+UXphPDTz//PPGW+WFBrNQA7EAFZ8+h42x21cJpgF7InWwq929it0/nAN+YwBiAerLL79scvPjiPR2twmirRmux7Zt26aWBxXt25y/G5kdcAI8/vjjvh4ROVCxmcFcTB6USjANcDw6CXuYcuJiPAlWs2iuIr8KpnA/8aqRA/XDDz80J8Rp8EnwRqWzc8xO3IwnwWsY7kqCVUhKvOuuuzzfKHKgslgmYc8vy7HnGuf8hzCeQM0T1DCeBfXAQ0AioJ/NdqRARcFM++zqVIJpAMYTDnK7+OKLg90gI1dhFWL693pwcqRA5QgYpiw97ykYWsiBgoS3GLi38FKxFufoJS8SKVBfeeUVufvuu1Ol0Pby0q7+hpA4LCVpMZ4kqRc65Pvvvy+PPfaYp8dGBlRGgzfffFOefPJJTw/WH/1bA2wucJSkweacVlu8+OKL8uCDD3o6szYyoBJ3Cu2hckgFa3aizOAaLaZjieCsuvLKKz3FqUYGVMxSEHUpbaR/oGIEh5CDRismgbaSpE8vZqrIgEqANOvTrNr+YB7B7UvhM8RfttjvuDX5bL/LGZHTZ04L/27/zwKN74VS6BKFaNcWfoNJCnaRli1bmktKSkoMaRy/KSlpLs2bn/1Osf+HI4DvWXYIwFfFOtVL/n8kQK2pqZEXXnhBnn76aacGBADFMTacFELhM+Cz3wEln/k3pLDxLSAK//K5sJwFUsk50NUFYCHzcyFw7Wf+wsRHPSDgpb4W8NSp8LPtHLYj8Zff8NcClvq3aNHCFD4DfPvd/nWqgUTkueeek6eeekpKS0sbrVokQIV7H0LXNOynUMgAQDqLLXy3oKSx6jaYbVD7145USTcidSQLAuO+HU2D1MF2Pjsj2A5oO2dhJ+U5gMLqhc+2pDE6Y0+FwLmpswAiASprDUaGO++8M4iePV2DzY0CMAuLVTiHLNgGsH/TULynl/nnR3RwOgnnlSYhjNB0ZtuxCzs4OqUu6A5bOAWdUhiN45KPPvrIODea2ttEAlSvD/P6sgCSzQUH9PKZvwCyUHlWiUy9WRQbeEJmpiskxoy8ANYOCOid73R4GAMLS1SDwIYNG4zfv6lBLhKgcuQO55R6dYfVBRabCVsAKA3H5oJilZNVQDbUiQg84d2yEArJKAxoKbQPbcVAQRgi5rTCjaDfQQO3O+etchRQYxIJUIk/JW8fH7UXYcqBLI0CRxFTCy9M4eWj6q1e6pLGb3hnGihMnnsa9S58JqAFsLwL7QhwIUWj+LEF4ygi77+p+NTQQGXd8+yzz8ozzzzT6PlGTCuHDh0ynJ70SqKrKLxYnGugtBu0vueTkYmbNE+BJ7QpUVG0L5s72paBqynKdq/4CQ1UehSBsE888US9mKC3sQYBpDQOuTKZCwE06cqG/ekspU6IbNBiCDxhqUB74xJGaHNilBsakF566SUTaN/YSBwaqFVVVeYEt7pp0VSS0/joXdgIqWi215n/kJW1DkerQ+AJThGvyyQXZwQ/dWKkBQfgAc8lWKhrMyWNmhMbu3Tp0uCtQwOV/P1NmzadOxCLEZbIGIZ0Ngr5aZCzQJUQxGSY8GiwsMx2foDiym9Z+uEuxV3cuXNn01mtQ4QD8QYOHNhovn9ooBJMQTDKPffcI4yu9B6O4GYEzZWY6b9GykLQ6mDc7969u6/NRq50KGI8gRUVFcaeC18uFoP33nvPxDlA+dOQhAYqoykjBZSS2Nx4YB537Yb28WjbwOvTYg08aQh4DGiVlZWGpIQgajaWjKqxARXuSx7KdJarKa1wA2W1F2B9yjIIkNq1elOuwryNoI29D8sgZmH0g1kSDt3YgAqTNI1B5BSeozyIJc09R5Rr2PSqRXwyPGOuIQeqUBhBMmf1iLFRy8vLZdu2bcaMBaFebECF+QJTRFCvVIw68Hzrf/mZ6wNlA7SPxDiohNcAYMUiAIFabEAlYJrNVEN21PCvkfAd6ts0BaR91BG16bZjxiEplI1UrEBl6l+7dq3J5c+Dp+XstF/6Ly7SMLTkdo1Kk2GuwzSjcl4DnOJIh2btHuvUz2YKWyrywAMPZL8N6oyo5w55CLCRyr4y4n0D1qbwQGApYo0a62bKmqcw8LNWJbkv65sqM4L+4zFtXtZJ2h7dJ9UnabTmoeyo8TZ7tu7OSdSffvqpOYNq+/bt8ZunCg3+MEwTXzhmzJhcU9JkCxJu1RaXKmtSBjXrNk3E4F/XhcoOjnUrdkNiVIspT90tSLhVGwC6fv16gSANJh2Kjf1IxIXaUFAKIy3LAlxm/fv3l379+jkTye5WE+a7NuCDaR73MWZAvE91mWASCUppKswP0xWVJGoITiWKnpKSb3AyrcPvymaJ7Fl7GBp+/fokkTA/r4GvRINTec5FpZcBVk7HgMy1oRfId3Pm6+3w2zMoYRcl+p8lHy71phxBXvETOigFdftNRSGYmpwhCmtaAmaxo1GIqMm61SBfEKz/bSCPqNhbIeV7yk0bEhwNKBl4iBDzKomlolChsMl9hH3ZwmhLYC2GcRu3SOxisaWreG3oJH7HVE7gCM4LSlVllXTo2MGEc9rSVMpJQ/VMNLmPdGniTwcPHhyJ3ojGQiH0WhREwC2jLtHheL8oPI/iSqpxJC+e8k1YnpE2RNgmZf/v+2X/H/vNDIdXjQHDeteimvW8ckJEMvV7fViYdjCK27/fKBBlWppGe3IIO0myCSg2aZB0ZJXzGsBkiLuSpRdTLp8ZLW2BO8HmN9kBgcEhTj165YSIBKhpUvoQ04jSbUH5tjGIImckZloC0LYwGhTyBvA9y8HeBKxjpywk7rD59zalGesM+kAXtiPbjm07eVSjpJ/BIVFKH1dJ0rDh0kC2sfhrSRQsE4tlYyF/x7KvFNIDWa6mQrIxQN0QoZolUaOxCpMZC4nRCsnQ6jIHWv4o6m45pCyXViG/ViGtEWt6Q9TRqrW0btP6XCekY9IhLV8C312TREnSePms004CDEtlU0i2Zrmaak/USu3Js6yAFkyWTY+/ho7y1OlzNJR8LxSAaoFLpzhPK3mWUpL/ozPYv5aRj7+FhGa24xTSGxWyBroGxMbqkzjtJJVRIt8sQcSNuqZC5KvU6G40fpZqkQo1uh42kSWIuFHXVA6b4NX1+B43AJCFWqR2fA/K0QPRsgARN+qY6oFoesSkGyDIQi1SPWISBemhvVmASbp1TP3QXmum0mPQ0wWC60934hh0QvfILITvUkU1UJ8G4NPlZGlCAr1KJL7+ug8jPnXSpEmZ4Kf3qij9XTQaIBpu8eLFTVKh131aLEBds2aNcTOOGjUqmrfTu+RGA1BAEScxfPhwX+8UC1CJaGJXN3v2bF+V0R/nXwNstjk4j3BCPxILUKnAokWLTF4U2acqqgE0sHXrVpNTBemEX4kNqOT7Q0hRl9vfbwX19/nRAGnREKGR1OlXYgMqFaFiEA0oCYXfZsnf7xlJISYJOnDFClTy+SGimDp1av40r2/kSwMLFiww1JLk+AeRWIFKhQioZvfvx2YW5EX0Gnc1gG2d3f7MmTMDVzJ2oBKnysjKEZQqxakBjpC0bClBNRA7UO1aFe5LTk5RKS4NQOUEh27QtanVViJAhcaHhfSMGTOKq5X0bWXu3LmGSTrsiTmJAJX2wq4KXc/QoUO1+YpEAwSf7N27N5DdtK6KEgMqbCd4q2bNmlXUJ9cVCUZNmvqcOXOMF4oTT8JKYkClosQAwNIxYcKEsPXW6x3XwNKlSw3ZhV+ffkOvlShQrbmKNYturBxHWojqsYFiTxLGHJXa1G8fjE2NI1t4CRhJVPKlARhcsJ2PHz8+Utt54iMqzbJq1SrDlaRLgHyBlLdhyodGaOTIkZG+XCpAtbZVIqvg91fJhwY2b94s33zzTWibaX3aSA2oRHpjY+PEP3g3VbKtAXik5s2bZ2zlcKhGLakBlRfhtAx6IflVSsgbddMmdz9I4siDGjBgQGwzZKpARZUrV64061VO/FPJpgbgkGJdykF4cUnqQOXFOBALo/CIESPiek+9b0waWL16taGunzx5ckxPOHtbJ4CKSWP+/Plm2uDQLJVsaADaSJZv06dPj93U6ARQaRb4+QkH43xMDk1TcVsDHLS7YsUKE74Jz3/c4gxQeVHOAuAoIDgB9HS/uJs++P1JKyE3f9q0aeZssCTEKaDywiQFEmk1ZcqUJk99S0JB+ox/awAivIULF5qIqCBJekH16RxQeRHiV5csWWIW6JrCErRpo78O9zcb34kTJ4aOL/VbOyeBykvs2LHDjKwsA8IG3fpViv7+vxpg8GC6ZyRNI6vYWaCiKnowyhk7dqz07dtX8ZOSBsh7W758uRk00prhnAYq7QKFNssAvB7Dhg1LqamK97Hr1q0z3kOme86mTUucByqKIdga7wc+ZEZXlWQ0wChKTAZew6CH8kZV00wAlZflQDFCyDhpj1hHTqNTiUcDpJEQM8xpgIRiunDgWmaAapuEyHGmonHjxqmtNQacYiNdtmyZWWqRieGKZA6oKM4qk3hWmItVotEATOEw7rk4CGQSqDQLEVesoVgKjB49WmNaQ2CVWFKOXmKqZw9AJJRrklmgWkVu2rTJKJlpCuZAFX8a4LwnllN09oEDB/q7OMFfZx6o6OrQoUMmD4tNAKGCPXr0SFCF2XwUrlBC9NiUkt/Uvn17p18kF0C1GobiEu4AAiUYYdu1a+e08tOoHGfWMoISAESn7tOnTxrV8P3MXAHVmrFgumZKg5gNJ4GmZYsQ84vxHsIylkgwP7tgdvKK2NwB1b44ToK1a9cayksAO3jw4KIELADdsGGDASjUjzfffHPqxnuv4Cz8XW6Bal/ywIEDsn79egNYNguUYlgSMMWz0aQA0CFDhggnKmZVcg9U2zA0HI4CGs6e1pLHTRebJHv6CJ0Sw30eOmbRANUCloPaaEgigvjMZoLUF9d3vY2NhFg9SA3Ztm2bOWyMSDOcIXzOixQdUAsbrqKiwjQupF5Mi8RZUrIAWsBJzC6F5Q2kc3S6bt265QWb/3qPogZqoSZIgaHRcc/ioWFZ0L17d0M+3LJly9Qb/8SJE4YUt7y8XJje8cixhKFjJZkSkpYiFKj1aL6ystKAAWBgbyS8sEuXLsZNC/8AWZclJSWxtdnp06dNVi758rg3q6qqTLgd9mE6Dp2oa9eusT3fxRsrUJtoFcILAS4B3IAG8AAilgqc51lWVmbMPXh48JG3atVKSktLzSjcokULA2jsldwHANbW1gqjY01NjRw/ftzELOBRw5xWXV0tnCPLVE5noFPQOQhYBphZsntGDXYFagCNAjrABKgAFyADbIAOuyUFQFIAJ78HZIAW8FJwQlAANyAH7IAe8NMJihmU9TWJAjUAUPWS5DWgQE1e5/rEABpQoAZQml6SvAYUqMnrXJ8YQAMK1ABK00uS14ACNXmd6xMDaECBGkBpeknyGlCgJq9zfWIADShQAyhNL0leAwrU5HWuTwygAQVqAKXpJclrQIGavM71iQE0oEANoDS9JHkNKFCT17k+MYAGFKgBlKaXJK8BBWryOtcnBtCAAjWA0vSS5DXwfxsY/pxhhLJqAAAAAElFTkSuQmCC;" vertex="1" parent="7">
                    <mxGeometry x="330" y="108.75" width="137.17" height="152.5" as="geometry"/>
                </mxCell>
                <mxCell id="22" value="Calculate" style="rounded=1;whiteSpace=wrap;html=1;" vertex="1" parent="7">
                    <mxGeometry x="30" y="290" width="80" height="30" as="geometry"/>
                </mxCell>
                <mxCell id="23" value="&lt;font style=&quot;font-size: 20px;&quot;&gt;The volume is: -- mm&lt;span style=&quot;color: rgb(31, 31, 31); font-family: &amp;quot;Google Sans&amp;quot;, Arial, sans-serif; text-align: start; text-wrap-mode: wrap; background-color: rgb(255, 255, 255);&quot;&gt;³&lt;/span&gt;&lt;/font&gt;" style="text;html=1;align=center;verticalAlign=middle;resizable=0;points=[];autosize=1;strokeColor=none;fillColor=none;" vertex="1" parent="7">
                    <mxGeometry x="10" y="333" width="220" height="40" as="geometry"/>
                </mxCell>
            </root>
        </mxGraphModel>
    </diagram>
</mxfile>